<?xml version="1.0" encoding="utf-8"?>
<!-- Generator: Adobe Illustrator 24.1.2, SVG Export Plug-In . SVG Version: 6.00 Build 0)  -->
<svg version="1.1" xmlns="http://www.w3.org/2000/svg" xmlns:xlink="http://www.w3.org/1999/xlink" x="0px" y="0px"
	 viewBox="0 0 750 500" style="enable-background:new 0 0 750 500;" xml:space="preserve">
<style type="text/css">
	.st0{opacity:0.27;fill:#004517;}
	.st1{fill:#5AE4A7;stroke:#404040;stroke-miterlimit:10;}
	.st2{fill:none;stroke:#404040;stroke-linecap:round;stroke-linejoin:round;stroke-miterlimit:10;}
	.st3{opacity:0.27;}
	.st4{fill:#44AB7D;}
	.st5{fill:none;stroke:#44AB7D;stroke-linecap:round;stroke-linejoin:round;stroke-miterlimit:10;}
	.st6{fill:#ADD6B7;}
	.st7{fill:none;stroke:#FFFFFF;stroke-linecap:round;stroke-linejoin:round;stroke-miterlimit:10;}
	.st8{fill:#FAAD3B;stroke:#1D1D1B;stroke-miterlimit:10;}
	.st9{opacity:0.75;}
	.st10{fill:#F5E073;}
	.st11{fill:#5AE4A7;stroke:#1A2E35;stroke-linecap:round;stroke-linejoin:round;}
	.st12{fill:#E3C940;}
	.st13{fill:#FAAD3B;}
	.st14{fill:none;stroke:#1D1D1B;stroke-linecap:round;stroke-linejoin:round;stroke-miterlimit:10;}
	.st15{fill:#FAAD3B;stroke:#6A26A8;stroke-miterlimit:10;}
	.st16{fill:#404040;}
	.st17{fill:none;stroke:#6A26A8;stroke-linecap:round;stroke-linejoin:round;stroke-miterlimit:10;}
	.st18{fill:#858585;stroke:#1A2E35;stroke-linecap:round;stroke-linejoin:round;stroke-miterlimit:10;}
	.st19{fill:#EDEDED;}
	.st20{fill:#1D1D1B;}
	.st21{fill:#5AE4A7;stroke:#1D1D1B;stroke-miterlimit:10;}
	.st22{fill:none;stroke:#44AB7D;stroke-miterlimit:10;}
	.st23{fill:#EDD349;}
	.st24{fill:#FFFFFF;}
	.st25{fill:#FFFFFF;stroke:#1A2E35;stroke-linecap:round;stroke-linejoin:round;stroke-miterlimit:10;}
	.st26{fill:#5AE4A7;}
	.st27{fill:none;stroke:#1A2E35;stroke-width:0.75;stroke-linecap:round;stroke-linejoin:round;stroke-miterlimit:10;}
</style>
<g id="BACKGROUND">
</g>
<g id="OBJECTS">
	<path class="st0" d="M601.5,387.29c-11.59,21.74-23.27,43.44-34.86,65.18c-1.56,2.93-3.22,5.97-5.97,7.83
		c-3.54,2.41-8.14,2.37-12.42,2.25c-23.19-0.66-46.33-1.08-69.52-1.29c-53.4-0.49-106.8-0.97-160.2-1.46
		c-23.96-0.22-47.92-0.44-71.88-0.66c-15.67-0.14-31.26,0.46-46.9,0.5c-7.95,0.02-16.39-1.5-22.27-6.85
		c-4.89-4.45-7.34-10.92-9.47-17.18c-11.44-33.72-1.4-74.44-20.46-104.52c-17.49-27.59,12.78-60.25,29.38-81.8
		c7.25-9.41,20.29-12.3,28.42-21.46c27.05-30.49,43.82-45.24,53.58-70.61c6.04-15.69,34.67-33.08,51.44-31.97
		c15.67,1.03,31.41,4.66,44.97,12.58c14.16,8.27,25.27,20.75,37.04,32.18c23.59,22.9,52.25,42.79,84.91,46.6
		c20.77,2.42,41.8-1.82,62.67-0.55c22.79,1.39,45.12,9.53,63.46,23.12c11.74,8.7,22.07,19.94,27.17,33.64
		c11.14,29.93-1,61.34-15.06,88C610.88,369.65,606.2,378.47,601.5,387.29z"/>
	<g>
		<g>
			<path class="st1" d="M560.85,342.89c0,0,24.9-15.71,13.77,19.53C574.62,362.42,545.08,351.66,560.85,342.89z"/>
			<path class="st1" d="M537.61,236.96c0,0,21.37-18.67,13.77,19.53C551.37,256.49,521.84,245.73,537.61,236.96z"/>
			<path class="st1" d="M533.68,321.16c0,0-26.38-16.64-14.59,20.69C519.1,341.85,550.39,330.45,533.68,321.16z"/>
			<path class="st1" d="M513.27,269.77c0,0-26.38-16.64-14.59,20.69C498.69,290.46,529.98,279.06,513.27,269.77z"/>
			<path class="st1" d="M499.98,203.44c0,0-17.62-20.89-14.59,20.69C485.39,224.13,516.68,212.73,499.98,203.44z"/>
			<path class="st1" d="M542.76,174.32c0,0,17.62-20.89,14.59,20.69C557.34,195.01,526.06,183.61,542.76,174.32z"/>
			<path class="st1" d="M487.45,153.6c0,0-6.65-20.37-16.96,11.05C470.49,164.65,496.92,165.19,487.45,153.6z"/>
			<path class="st1" d="M537.06,356.32c0,0-16.97-10.71-9.39,13.31C527.67,369.63,547.8,362.29,537.06,356.32z"/>
			<path class="st1" d="M554.69,287.75c0,0,22.08-13.93,12.21,17.32C566.9,305.07,540.71,295.53,554.69,287.75z"/>
			<path class="st2" d="M538.85,385.32c0,0,27.58-41.09,5-89.56c-26.3-56.43-48.77-107.74-14.98-118.96"/>
			<path class="st2" d="M553.72,337.77c2.97,6.49,11.69-1.86,17.48,18.58"/>
			<path class="st2" d="M518.29,235.22c1.28,5.18,22.47-4.53,27.76,11.93"/>
			<path class="st2" d="M550.58,322.28c0,0-20.61-10.94-27.86,13.15"/>
			<path class="st2" d="M530.13,268.49c-3.7-0.96-22.69-12.73-25.24,12.57"/>
			<path class="st2" d="M511.82,210.48c-0.28-0.84-6.13-21.75-21.85,0.68"/>
			<path class="st2" d="M528.78,176.81c0,0,17.69-12.32,24.93,11.77"/>
			<path class="st2" d="M501.87,158.03c0,0-9.29-14.09-21.87,1.54"/>
			<path class="st1" d="M530.44,125.48c0,0-6.32,20.83,20.21-0.32C550.65,125.16,529.38,110.6,530.44,125.48z"/>
			<path class="st2" d="M512.15,192.08c6.41,6.63-39.99-77.01,25.51-66.31"/>
			<path class="st2" d="M547.77,361.78c0,0-13.11-11.79-17.77,3.71"/>
			<path class="st2" d="M542.99,289.84c0,0,14.81-10.31,20.87,9.85"/>
		</g>
	</g>
	<g class="st3">
		<path class="st0" d="M146.37,442.54c3.06,2.28,8.43,3.92,13.73,5.48h440.84c0.67-0.41,1.33-0.85,1.94-1.37
			c3.87-3.21,5.9-8.08,7.64-12.79c8.36-22.78,12.9-47.34,9.97-71.43c-2.93-24.09-13.82-47.68-32.4-63.29
			c-9.48-7.96-20.72-13.74-29.61-22.36c-27.3-26.46-27.68-74.43-59.01-95.97c-14.43-9.92-32.92-12.04-50.4-10.89
			c-16.33,1.08-32.72,4.85-46.85,13.11c-14.76,8.62-26.33,21.62-38.59,33.52c-24.58,23.85-54.43,44.58-88.45,48.54
			c-21.64,2.52-43.54-1.9-65.29-0.57c-23.74,1.45-47,9.93-66.1,24.09c-12.23,9.07-22.85,20.83-28.31,35.05
			c-8.78,22.86-3.18,45.34,4.7,66.02C125.72,404.2,133.61,433.02,146.37,442.54z"/>
		<path class="st0" d="M582.99,381.13c-11.59,21.74-23.27,43.44-34.86,65.18c-1.56,2.93-3.22,5.97-5.97,7.83
			c-3.54,2.41-8.14,2.37-12.42,2.25c-23.19-0.66-46.33-1.08-69.52-1.29c-53.4-0.49-106.8-0.97-160.2-1.46
			c-23.96-0.22-47.92-0.44-71.88-0.66c-15.67-0.14-31.26,0.46-46.9,0.5c-7.95,0.02-16.39-1.5-22.27-6.85
			c-4.89-4.45-7.34-10.92-9.47-17.18c-11.44-33.72-18.33-68.97-20.46-104.52c-1.82-30.49,4.96-61.28,29.38-81.8
			c9.1-7.65,19.89-13.19,28.42-21.46c26.2-25.4,26.57-71.45,56.65-92.12c13.86-9.52,31.6-11.56,48.38-10.45
			c15.67,1.03,31.41,4.66,44.97,12.58c14.16,8.27,25.27,20.75,37.04,32.18c23.59,22.9,52.25,42.79,84.91,46.6
			c20.77,2.42,41.8-1.82,62.67-0.55c22.79,1.39,45.12,9.53,63.46,23.12c11.74,8.7,22.07,19.94,27.17,33.64
			c11.14,29.93-1,61.34-15.06,88C592.37,363.5,587.69,372.32,582.99,381.13z"/>
	</g>
	<g>
		<g>
			<g>
				<g>
					<path class="st4" d="M204.07,342.73c0,0-34.69,0.37-28.9-9.12c5.19-8.5,24.27,5.54,28.19,8.56
						C203.82,342.53,204.07,342.73,204.07,342.73z"/>
				</g>
				<g>
					<path class="st4" d="M203.98,342.26c0,0-0.37-34.69,9.12-28.9C222.58,319.15,203.98,342.26,203.98,342.26z"/>
				</g>
				<g>
					<path class="st4" d="M214.21,363.46c0,0-34.57,0.44-28.9-9.12C190.26,346,213.73,364.11,214.21,363.46z"/>
				</g>
				<g>
					<path class="st4" d="M214.27,363.55c0,0-0.37-34.69,9.12-28.9C232.87,340.43,214.27,363.55,214.27,363.55z"/>
				</g>
				<g>
					<path class="st4" d="M221.07,382.36c0,0-30.43,0.32-25.36-8C200.8,366.04,221.07,382.36,221.07,382.36z"/>
				</g>
				<g>
					<path class="st4" d="M220.87,382.53c0,0-0.32-30.43,8-25.36C237.19,362.25,220.87,382.53,220.87,382.53z"/>
				</g>
				<g>
					<path class="st4" d="M225.83,401.46c0,0-28.32-3.37-22.6-10.49C208.96,383.85,225.83,401.46,225.83,401.46z"/>
				</g>
				<g>
					<path class="st4" d="M225.29,401.59c0,0,3.37-28.32,10.49-22.6C242.9,384.72,225.29,401.59,225.29,401.59z"/>
				</g>
			</g>
		</g>
		<path class="st4" d="M204.8,344.18c0,0-18.59-24.86-16.53-31.65C191.23,302.76,202.83,340.3,204.8,344.18z"/>
		<path class="st5" d="M201.06,337.32c0,0,27.97,41.98,27.64,98.16"/>
	</g>
	<g>
		<g>
			<g>
				<g>
					<path class="st4" d="M499.17,237.92c0,0,20.14,28.25,24.39,17.99c3.81-9.19-18.78-16.35-23.53-17.74
						C499.48,238,499.17,237.92,499.17,237.92z"/>
				</g>
				<g>
					<path class="st4" d="M499.6,237.71c0,0,28.25-20.13,17.99-24.39C507.32,209.07,499.6,237.71,499.6,237.71z"/>
				</g>
				<g>
					<path class="st4" d="M476.44,241.93c0,0,20.13,28.25,24.39,17.99C505.09,249.65,476.44,241.93,476.44,241.93z"/>
				</g>
				<g>
					<path class="st4" d="M476.34,241.94c0,0,28.25-20.13,17.99-24.39C484.06,213.29,476.34,241.94,476.34,241.94z"/>
				</g>
				<g>
					<path class="st4" d="M457.12,247.52c0,0,17.66,24.79,21.4,15.78C482.25,254.29,457.12,247.52,457.12,247.52z"/>
				</g>
				<g>
					<path class="st4" d="M457.11,247.79c0,0,24.78-17.66,15.78-21.4C463.88,222.65,457.11,247.79,457.11,247.79z"/>
				</g>
				<g>
					<path class="st4" d="M438.88,254.92c0,0,19.41,20.9,21.79,12.08C463.06,258.19,438.88,254.92,438.88,254.92z"/>
				</g>
				<g>
					<path class="st4" d="M439.1,255.44c0,0,20.9-19.41,12.08-21.79C442.36,231.27,439.1,255.44,439.1,255.44z"/>
				</g>
				<g>
					<g>
						<path class="st4" d="M421.83,264.23c0,0,24.15,15.17,24.17,6.04C446.03,261.14,421.83,264.23,421.83,264.23z"/>
					</g>
					<g>
						<path class="st4" d="M422.17,264.36c0,0,15.17-24.15,6.04-24.17C419.07,240.16,422.17,264.36,422.17,264.36z"/>
					</g>
				</g>
				<g>
					<g>
						<path class="st4" d="M407.24,274.14c0,0,20.94,13.16,20.96,5.24C428.21,271.45,407.24,274.14,407.24,274.14z"/>
					</g>
					<g>
						<path class="st4" d="M407.74,274.52c0,0,13.16-20.94,5.24-20.96C405.05,253.55,407.74,274.52,407.74,274.52z"/>
					</g>
				</g>
				<g>
					<g>
						<path class="st6" d="M396.61,282.62c0,0,17.88,11.24,17.9,4.47C414.52,280.33,396.61,282.62,396.61,282.62z"/>
					</g>
					<g>
						<path class="st6" d="M397.1,283.08c0,0,11.24-17.88,4.47-17.9C394.81,265.17,397.1,283.08,397.1,283.08z"/>
					</g>
				</g>
			</g>
		</g>
	</g>
	<g>
		<g>
			<path class="st4" d="M301.9,350.17c1.25-0.54-9.12-31.02-9.8-32.63c-10.06-24.08-25.08-43.68-43.26-56.37
				c-33.59-23.44-72.83-21.05-110.51-12.04c4.67,0.11,8.9,3.05,12.72,6.37c25.01,21.7,38.27,61.28,64.05,81.43
				C240.1,356.46,272.75,362.72,301.9,350.17z"/>
		</g>
		<g>
			<path class="st7" d="M286.97,343.56c0,0-46.32-79.73-129.43-90.67"/>
			<polyline class="st7" points="211.74,250.53 220.17,275.78 178.36,277.56 			"/>
			<polyline class="st7" points="243.74,271.52 251.96,300.71 216.81,302.55 			"/>
			<polyline class="st7" points="272.23,298.38 276.74,328.48 241.13,325.23 			"/>
		</g>
	</g>
	<g>
		<g>
			<g>
				<g>
					<g>
						<polygon class="st8" points="319.8,308.83 314.07,323.38 276.24,419.47 272.31,405.23 268.12,361.36 284.28,313.57 						"/>
						<g class="st9">
							<polygon class="st10" points="314.07,323.38 276.24,419.47 272.31,405.23 310.07,322.53 							"/>
						</g>
					</g>
					<g>
						<polygon class="st8" points="448.98,378.41 443.99,403.55 440.83,419.47 403,323.38 397.26,308.83 432.77,313.57 						"/>
						<g class="st9">
							<polygon class="st10" points="443.99,403.55 440.83,419.47 403,323.38 406.99,322.53 							"/>
						</g>
					</g>
					<g>
						<g>
							<path class="st11" d="M407.04,324c-5.88,22.25-5.47,53.09-5.47,53.09l-12.56,0.19l-18.93,0.3l-22.06,0.34l-2.61,0.03
								l-11.52,0.18l-17.59,0.27c0-0.81-0.02-1.63-0.05-2.44c-0.01-0.43-0.02-0.86-0.03-1.27c-0.03-0.64-0.05-1.27-0.09-1.89
								c-0.05-0.93-0.1-1.86-0.14-2.79c-0.12-1.68-0.25-3.35-0.4-5c-0.02-0.26-0.05-0.51-0.06-0.77c-0.01-0.37-0.02-0.75-0.03-1.1
								c-0.03-0.64-0.05-1.26-0.09-1.89c-0.05-0.93-0.1-1.86-0.15-2.79c-0.11-1.68-0.24-3.34-0.39-5c-0.04-0.48-0.08-0.95-0.12-1.43
								c-0.06-0.54-0.11-1.08-0.17-1.62c-0.05-0.5-0.1-1.01-0.16-1.5c-0.09-0.81-0.17-1.6-0.27-2.39c-0.03-0.2-0.05-0.39-0.08-0.59
								c-0.06-0.5-0.12-0.98-0.18-1.47s-0.12-0.97-0.19-1.44c-0.07-0.49-0.14-0.97-0.2-1.44c-0.07-0.47-0.14-0.95-0.21-1.42
								c-0.07-0.46-0.13-0.93-0.21-1.39c-0.07-0.47-0.14-0.92-0.22-1.37c-0.21-1.35-0.43-2.67-0.65-3.96
								c-0.06-0.37-0.12-0.72-0.19-1.08c-0.17-1-0.36-1.98-0.54-2.94c-0.11-0.57-0.22-1.12-0.33-1.67
								c-0.26-1.34-0.52-2.61-0.77-3.81c-13.35-1.18-28.15-8-28.15-8l18.03-41.18c4.02-6.4,20.66-11.42,32.62-14.29
								c7.18-1.71,12.68-2.66,12.73-2.67l0.01-0.02l0.3,0.03l12.88,1.17l13.64-1.2v0.02c0.13,0.02,38.92,6.69,45.36,16.96
								l18.03,41.18C435.83,315.94,420.54,322.98,407.04,324z"/>
						</g>
					</g>
					<path class="st12" d="M370.08,377.58l-22.06,0.34l-2.61,0.03l-29.11,0.45c0-0.81-0.02-1.63-0.05-2.44
						c-0.01-0.43-0.02-0.86-0.03-1.27c-0.03-0.64-0.05-1.27-0.09-1.89c-0.05-0.93-0.1-1.86-0.14-2.79c-0.12-1.68-0.25-3.35-0.4-5
						c-0.02-0.26-0.05-0.51-0.06-0.77c-0.01-0.37-0.02-0.75-0.03-1.1c-0.03-0.64-0.05-1.26-0.09-1.89c-0.05-0.93-0.1-1.86-0.15-2.79
						c-0.11-1.68-0.24-3.34-0.39-5c-0.04-0.48-0.08-0.95-0.12-1.43c-0.06-0.54-0.11-1.08-0.17-1.62c-0.05-0.5-0.1-1.01-0.16-1.5
						c-0.09-0.81-0.17-1.6-0.27-2.39c-0.03-0.2-0.05-0.39-0.08-0.59c-0.06-0.5-0.12-0.98-0.18-1.47s-0.12-0.97-0.19-1.44
						c-0.07-0.49-0.14-0.97-0.2-1.44c-0.07-0.47-0.14-0.95-0.21-1.42c-0.07-0.46-0.13-0.93-0.21-1.39
						c-0.07-0.47-0.14-0.92-0.22-1.37c-0.21-1.35-0.43-2.67-0.65-3.96c-0.06-0.37-0.12-0.72-0.19-1.08c-0.17-1-0.36-1.98-0.54-2.94
						c-0.11-0.57-0.22-1.12-0.33-1.67c-0.26-1.34-0.52-2.61-0.77-3.81C310.38,323.94,338.66,360.33,370.08,377.58z"/>
				</g>
				<g>
					<g>
						<g>
							<path class="st13" d="M371.06,230.19v30.28c0,0-3.17,2.38-10.34,2.81c-0.7,0.04-1.45,0.06-2.23,0.06
								c-4.98,0-8.66-0.79-11.02-1.54c-2.15-0.68-3.23-1.33-3.23-1.33v-27.06L371.06,230.19z"/>
							<g class="st9">
								<path class="st10" d="M360.72,263.28c-0.7,0.04-1.45,0.06-2.23,0.06c-4.98,0-8.66-0.79-11.02-1.54
									c-2.15-0.68-3.23-1.33-3.23-1.33v-24.89l10.76,5.17C355,240.75,352.59,255.46,360.72,263.28z"/>
							</g>
							<polyline class="st14" points="344.24,260.48 344.24,233.41 371.06,230.19 371.06,260.48 							"/>
						</g>
						<g>
							<g>
								<g>
									<path class="st15" d="M325.34,201.24c0.34,4.71-1.56,8.69-4.23,8.89c-2.68,0.19-5.12-3.47-5.46-8.19
										c-0.34-4.72,1.56-8.69,4.23-8.89C322.56,192.86,325,196.53,325.34,201.24z"/>
									<g>
										<g class="st9">
											<path class="st10" d="M317.46,199.75c0.72-0.7,1.81-0.72,2.66-0.21c0.97,0.59,1.36,1.75,1.67,2.77
												c0.21,0.72-0.91,1.03-1.12,0.31c-0.19-0.62-0.37-1.31-0.82-1.81c-0.39-0.42-1.1-0.7-1.57-0.24
												C317.74,201.1,316.92,200.27,317.46,199.75L317.46,199.75z"/>
										</g>
									</g>
								</g>
								<g>
									<path class="st8" d="M389.31,201.24c-0.34,4.71,1.56,8.69,4.23,8.89c2.68,0.19,5.12-3.47,5.46-8.19
										c0.34-4.72-1.56-8.69-4.23-8.89C392.1,192.86,389.65,196.53,389.31,201.24z"/>
									<g>
										<g class="st9">
											<path class="st10" d="M397.2,199.75c-0.72-0.7-1.81-0.72-2.66-0.21c-0.97,0.59-1.36,1.75-1.67,2.77
												c-0.21,0.72,0.91,1.03,1.12,0.31c0.19-0.62,0.37-1.31,0.82-1.81c0.39-0.42,1.1-0.7,1.57-0.24
												C396.91,201.1,397.73,200.27,397.2,199.75L397.2,199.75z"/>
										</g>
									</g>
								</g>
								<g>
									<g>
										<g>
											<path class="st13" d="M358.57,244.85c-2.89,0-5.75-0.37-8.5-1.1c-2.07-0.54-4.06-1.27-5.92-2.16
												c-0.68-0.33-1.29-0.64-1.85-0.96c-0.92-0.51-1.88-1.11-2.93-1.84c-8.34-5.84-14.18-15.5-16.9-27.95
												c-1.17-5.52-1.74-11.57-1.68-17.99c-0.04-1.55-0.03-3.07,0.04-4.52l0.01-0.14l0.02-0.03c0.85-15.3,8.03-28.72,19.23-35.9
												c0.76-0.49,1.54-0.95,2.31-1.36c4.4-2.42,9.14-3.72,14.08-3.85c0.31-0.01,0.62-0.01,0.94-0.01
												c6.18,0,12.31,1.89,17.73,5.46c10.01,6.57,17.15,18.54,19.1,32.02l0.05,0.5c0.26,1.84,0.42,3.75,0.47,5.67
												c0.02,1.34,0.02,2.66,0,3.94l-0.06,1.86c-0.16,4.36-0.59,8.56-1.3,12.48c-2.71,14.86-9.55,26.14-19.26,31.76
												c-0.73,0.47-1.57,0.92-2.55,1.37l-0.31-0.41l0.21,0.45l-0.12,0.05c-3.64,1.63-7.59,2.53-11.75,2.66
												C359.27,244.84,358.92,244.85,358.57,244.85z"/>
											<path class="st16" d="M357.4,147.52c6.29,0,12.24,1.94,17.46,5.37c9.73,6.39,16.89,17.94,18.88,31.67l0.05,0.48
												c0.26,1.83,0.42,3.72,0.47,5.63c0.02,1.33,0.02,2.64,0,3.92c-0.02,0.62-0.04,1.24-0.06,1.85
												c-0.16,4.43-0.6,8.56-1.29,12.41c-2.8,15.34-9.73,26.04-19.02,31.42c-0.81,0.52-1.66,0.96-2.51,1.35
												c-0.07,0.03-0.13,0.06-0.2,0.09c-3.59,1.61-7.48,2.49-11.57,2.62c-0.35,0.01-0.7,0.02-1.04,0.02
												c-2.84,0-5.66-0.36-8.38-1.09c-1.99-0.52-3.94-1.22-5.83-2.13c-0.61-0.29-1.22-0.6-1.82-0.94
												c-0.99-0.55-1.94-1.16-2.89-1.82c-7.74-5.42-13.85-14.61-16.7-27.65c-1.13-5.31-1.73-11.27-1.67-17.88
												c-0.04-1.51-0.03-3.02,0.04-4.5c0-0.02,0-0.02,0.02-0.05c0.82-15.44,8.25-28.73,19.01-35.63
												c0.74-0.48,1.5-0.93,2.27-1.34c4.23-2.33,8.9-3.66,13.86-3.79C356.79,147.52,357.1,147.52,357.4,147.52 M357.41,146.52
												L357.41,146.52c-0.32,0-0.64,0-0.95,0.01c-5.02,0.13-9.84,1.45-14.31,3.91c-0.77,0.41-1.56,0.88-2.33,1.38
												c-11.33,7.26-18.59,20.81-19.46,36.27c-0.02,0.07-0.03,0.16-0.03,0.25c-0.07,1.41-0.08,2.95-0.04,4.53
												c-0.06,6.42,0.51,12.51,1.69,18.06c2.75,12.58,8.66,22.35,17.1,28.26c1.07,0.74,2.04,1.35,2.98,1.88
												c0.56,0.32,1.18,0.64,1.88,0.97c1.88,0.91,3.9,1.64,6.01,2.19c2.79,0.74,5.7,1.12,8.63,1.12c0.36,0,0.72-0.01,1.07-0.02
												c4.22-0.13,8.24-1.04,11.95-2.71l0.11-0.05l0.07-0.03c1.03-0.47,1.89-0.93,2.66-1.43c9.8-5.67,16.72-17.08,19.46-32.08
												c0.71-3.95,1.15-8.18,1.31-12.55l0.06-1.78l0-0.08c0.02-1.3,0.02-2.63,0-3.97c-0.05-1.94-0.21-3.87-0.48-5.76l-0.05-0.44
												c-1.98-13.65-9.2-25.75-19.33-32.4C369.91,148.43,363.68,146.52,357.41,146.52L357.41,146.52z"/>
										</g>
										<path class="st14" d="M356.56,197.68c0,0,2.47,8.42,0.43,13.2c-0.39,0.92,0.18,1.94,1.17,2.04
											c1.54,0.15,3.77-0.08,6.18-1.8"/>
										<path class="st14" d="M356.06,220.65c0,0,7.59,3.29,13.78-3.23"/>
										<path class="st14" d="M368.5,186.4c0,0,6.6-1.93,9.78,0.93"/>
										<path class="st17" d="M339.37,186.4c0,0,6.6-1.93,9.78,0.93"/>
										<g class="st9">
											<path class="st10" d="M359.61,243.5c-3.2,0.1-6.37-0.26-9.42-1.07c-1.99-0.52-3.94-1.22-5.83-2.13
												c-0.61-0.29-1.22-0.6-1.82-0.94c-0.99-0.55-1.94-1.16-2.89-1.82c-7.74-5.42-13.85-14.61-16.7-27.65
												c-1.13-5.31-1.73-11.27-1.67-17.88c-0.04-1.51-0.03-3.02,0.04-4.5c0-0.02,0-0.02,0.02-0.05
												c0.82-15.44,8.25-28.73,19.01-35.63l2.7,11.22c0,0-13.26,51.92,1.31,72.35C347.76,240.17,352.67,243.22,359.61,243.5z"/>
										</g>
									</g>
									<g>
										<g>
											<g>
												<g>
													<g>
														<path d="M374.25,194.93c0,2.53-1.38,4.66-3.07,4.77c-1.7,0.11-3.07-1.85-3.07-4.38c0-2.53,1.38-4.66,3.07-4.77
															C372.88,190.44,374.25,192.4,374.25,194.93z"/>
														<path d="M348.44,194.77c0.13,2.52-1.12,4.73-2.81,4.93c-1.69,0.2-3.17-1.68-3.3-4.2c-0.14-2.52,1.12-4.73,2.81-4.93
															C346.82,190.36,348.3,192.24,348.44,194.77z"/>
													</g>
												</g>
											</g>
										</g>
									</g>
								</g>
							</g>
						</g>
					</g>
				</g>
			</g>
		</g>
		<g>
			<path d="M339.72,256.1c-0.45-0.11-11.2-2.83-19.05-15.92c-9.66-16.11-10.5-39.99-2.49-70.98c0.56-2.18,1.18-4.35,1.84-6.43
				c0.13-0.52,0.27-1.06,0.43-1.6c1.83-6.14,4.29-11.46,7.31-15.83c3.09-4.77,6.62-8.16,10.48-10.06
				c5.09-3.08,11.09-4.65,17.82-4.65c2.97,0,6.13,0.31,9.4,0.91c-0.01-0.14-0.01-0.27-0.01-0.41c0-7.03,5.72-12.74,12.74-12.74
				c7.03,0,12.74,5.72,12.74,12.74c0,4.45-2.32,8.56-6.1,10.87c16.18,17.74,11.87,50.79,11.82,51.12l-0.08,0.55l-0.54-0.13
				c-0.19-0.05-18.31-4.63-20.78-27.51c-2.26,6.5-11.3,20.06-47.48,26.83c-1.99,20.62-1.41,48.04,12.41,62.41l1.19,1.24
				L339.72,256.1z"/>
			<path d="M378.18,118.88c6.76,0,12.24,5.48,12.24,12.24c0,4.64-2.58,8.68-6.39,10.75c16.72,17.65,12.12,51.17,12.12,51.17
				s-19.8-4.71-20.64-30.64c0,0-0.08,21.12-48.19,30.02c-1.98,20.14-1.74,48.36,12.51,63.18c0,0-40.92-9.89-21.17-86.29
				c0.59-2.27,1.2-4.39,1.83-6.4c0.13-0.54,0.28-1.08,0.43-1.61c1.73-5.8,4.1-11.15,7.24-15.69c3.21-4.97,6.69-8.13,10.29-9.9
				c4.83-2.92,10.65-4.6,17.6-4.6c3,0,6.21,0.31,9.65,0.97c0.1,0.02,0.19,0.04,0.29,0.06c-0.03-0.34-0.05-0.68-0.05-1.03
				C365.94,124.36,371.42,118.88,378.18,118.88 M378.18,117.88c-7.24,0-13.14,5.84-13.24,13.06c-3.09-0.54-6.07-0.81-8.89-0.81
				c-6.8,0-12.88,1.59-18.08,4.72c-3.93,1.94-7.51,5.39-10.65,10.23c-3.03,4.38-5.51,9.76-7.36,15.94
				c-0.15,0.49-0.29,1.03-0.44,1.62c-0.65,2.08-1.27,4.24-1.83,6.42c-8.05,31.13-7.19,55.14,2.54,71.36
				c7.96,13.26,18.9,16.04,19.36,16.15l3.33,0.81l-2.38-2.47c-13.61-14.15-14.24-41.17-12.31-61.64
				c19.77-3.74,33.88-9.97,41.94-18.5c2.4-2.54,3.89-4.92,4.81-6.9c1.56,10.44,6.4,16.75,10.49,20.33
				c5.18,4.53,10.22,5.77,10.43,5.82l1.07,0.26l0.15-1.09c0.19-1.36,4.33-33.11-11.55-51.09c3.63-2.45,5.83-6.55,5.83-10.98
				C391.43,123.82,385.49,117.88,378.18,117.88L378.18,117.88z"/>
		</g>
	</g>
	<rect x="271.51" y="339.23" class="st18" width="190.22" height="111.93"/>
	<g>
		<path class="st19" d="M141.54,471.82c-6.69,0-12.13-5.44-12.13-12.13s5.44-12.13,12.13-12.13h462.12
			c6.69,0,12.13,5.44,12.13,12.13s-5.44,12.13-12.13,12.13H141.54z"/>
		<path class="st20" d="M603.66,448.05c6.42,0,11.63,5.21,11.63,11.63c0,6.42-5.21,11.63-11.63,11.63H141.54
			c-6.42,0-11.63-5.21-11.63-11.63c0-6.42,5.21-11.63,11.63-11.63H603.66 M603.66,447.05H141.54c-6.97,0-12.63,5.67-12.63,12.63
			s5.67,12.63,12.63,12.63h462.12c6.97,0,12.63-5.67,12.63-12.63S610.63,447.05,603.66,447.05L603.66,447.05z"/>
	</g>
	<rect x="207.91" y="406.6" class="st21" width="39.91" height="39.91"/>
	<g>
		<g>
			<path class="st22" d="M551.7,395.88c0,0,4.24-29.43,17.33-42.34"/>
			<g>
				<g>
					<path class="st4" d="M565.96,356.97c0.21-0.11,0.42-1.25,0.5-1.46c0.47-1.32,0.97-2.62,1.49-3.92
						c1.61-3.97,3.45-7.86,5.64-11.54c2.54-4.26,5.65-8.68,9.98-11.27c2.16-1.29,5.27-1.92,7.77-1.73c4.17,0.32,7.18,3.85,5.06,7.82
						c-1.76,3.31-5.23,5.45-8.09,7.72c-4.45,3.52-9.22,6.63-14.06,9.58C571.54,353.82,568.78,355.45,565.96,356.97z"/>
				</g>
			</g>
		</g>
		<g>
			<path class="st22" d="M560.54,408.17c0,0,1.66-22.94,14.75-35.85"/>
			<g>
				<g>
					<path class="st4" d="M571.57,376.49c0.31-0.17,0.64-1.84,0.77-2.16c0.67-1.79,1.42-3.56,2.24-5.29
						c1.99-4.18,4.46-8.66,8.21-11.54c2.36-1.81,9.17-3.69,10.52,0.51c0.23,0.72,0.05,1.5-0.25,2.19c-1.05,2.48-3.35,4.2-5.38,5.85
						c-2.26,1.83-4.67,3.49-7.11,5.07C577.64,373.03,574.64,374.84,571.57,376.49z"/>
				</g>
			</g>
		</g>
		<g>
			<path class="st22" d="M510.44,238.1c-12.54-2.91-44.96-0.83-99.03,31.39"/>
			<g>
				<path class="st4" d="M503.67,237.38c0.21,0.05,0.85-0.32,1.04-0.4c0.94-0.35,1.88-0.69,2.82-1.01c2.89-1,5.82-1.91,8.78-2.67
					c3.05-0.78,6.21-1.47,9.36-1.53c1.89-0.04,4.65,0.1,5.59,2.01c0.6,1.21,0.32,3.1-0.51,4.15c-1.35,1.7-4.41,1.82-6.42,1.9
					c-2.15,0.09-4.31-0.03-6.45-0.22c-3.94-0.35-7.86-0.97-11.73-1.72C505.33,237.72,504.5,237.56,503.67,237.38z"/>
			</g>
		</g>
		<g>
			<path class="st22" d="M545.51,396.66c0,0-5.8-17.02,1.9-33.71"/>
			<g>
				<g>
					<path class="st4" d="M546.25,365.99c-0.19-3.15-0.07-6.36,0.23-9.5c0.47-4.82,1.35-10.7,4.85-14.36
						c1.68-1.75,4.03-2.63,6.46-2.35c8.53,0.99-6.76,20.26-8.85,22.91C548.06,363.8,547.17,364.91,546.25,365.99z"/>
				</g>
			</g>
		</g>
		<g>
			<path class="st22" d="M545.26,395.98c0,0-27.58-55.32-44.95-61.33"/>
			<g>
				<g>
					<path class="st4" d="M502.42,335.58c-0.35-0.04-1.27-1.49-1.5-1.74c-1.28-1.43-2.62-2.81-4.02-4.13
						c-4.61-4.36-12.35-11.08-19.08-7.13c-0.77,0.45-1.48,1.03-1.96,1.79c-2.45,3.85,3.48,5.84,6.12,6.79
						c2.81,1.01,5.72,1.74,8.64,2.38c3.89,0.85,7.83,1.54,11.77,2.05C502.4,335.58,502.41,335.58,502.42,335.58z"/>
				</g>
			</g>
		</g>
		<g>
			<rect x="527.99" y="385.29" class="st10" width="43.63" height="61.04"/>
			<path class="st20" d="M571.12,385.79v60.04h-42.63v-60.04H571.12 M572.12,384.79h-1h-42.63h-1v1v60.04v1h1h42.63h1v-1v-60.04
				V384.79L572.12,384.79z"/>
		</g>
		<path class="st23" d="M570.12,445.83H529.5v-60.04C529.5,385.79,535.24,441.05,570.12,445.83z"/>
	</g>
	<g>
		<rect x="339.64" y="389.52" class="st24" width="53.6" height="12.33"/>
	</g>
	<rect x="360.28" y="368.57" class="st24" width="12.33" height="53.6"/>
	<g>
		<g>
			<path class="st25" d="M500.52,415.81h-18.27c-2.33,0-4.23,1.77-4.23,3.95v1.34c-1.12-0.94-2.46-1.49-3.91-1.49
				c-3.88,0-5.96,3.94-5.96,8.79c0,4.85,2.08,8.79,5.96,8.79c1.45,0,2.79-0.55,3.91-1.49v3.85c0,3.42,2.96,6.19,6.62,6.19h13.48
				c3.66,0,6.62-2.77,6.62-6.19v-19.8C504.74,417.58,502.85,415.81,500.52,415.81z M474.32,433.88c-2.41,0-3.71-2.45-3.71-5.47
				c0-3.02,1.29-5.47,3.71-5.47c1.56,0,2.93,1.03,3.71,2.58v5.78C477.25,432.84,475.88,433.88,474.32,433.88z"/>
			<g>
				<path class="st26" d="M485.56,431.61c-1.2-1.1-1.72-2.31-1.72-3.4c0-1.85,1.32-3.08,3.31-3.08c1.86,0,2.5,0.81,3.58,1.97
					c1.09-1.17,1.72-1.97,3.58-1.97c1.99,0,3.31,1.23,3.31,3.08c0,1.08-0.52,2.29-1.72,3.4l-5.17,4.82L485.56,431.61z"/>
			</g>
		</g>
		<g>
			<path class="st27" d="M488.96,403.07c1.3-3.32,0.06-6.42,0.06-6.42"/>
			<path class="st27" d="M487.98,412.43c0,0-2.78-3.66,0-7.56"/>
			<path class="st27" d="M494.54,403.02c3.97-5.57,1.49-11.76,1.49-11.76"/>
			<path class="st27" d="M494.54,413.82c0,0-2.89-3.81-1.27-8.39"/>
		</g>
	</g>
</g>
</svg>
