<?xml version="1.0" encoding="utf-8"?>
<!-- Generator: Adobe Illustrator 24.1.2, SVG Export Plug-In . SVG Version: 6.00 Build 0)  -->
<svg version="1.1" id="Layer_1" xmlns="http://www.w3.org/2000/svg" xmlns:xlink="http://www.w3.org/1999/xlink" x="0px" y="0px"
	 viewBox="0 0 1125 2436" style="enable-background:new 0 0 1125 2436;" xml:space="preserve">
<style type="text/css">
	.st0{fill:url(#SVGID_1_);stroke:#296CB4;stroke-miterlimit:10;}
	.st1{fill:url(#SVGID_2_);stroke:#296CB4;stroke-miterlimit:10;}
	.st2{fill:url(#SVGID_3_);stroke:#296CB4;stroke-miterlimit:10;}
	.st3{fill:url(#SVGID_4_);}
	.st4{fill:url(#SVGID_5_);stroke:#000000;stroke-miterlimit:10;}
	.st5{fill:url(#SVGID_6_);}
	.st6{fill:url(#SVGID_7_);}
	.st7{fill:url(#SVGID_8_);}
	.st8{fill:url(#SVGID_9_);}
</style>
<linearGradient id="SVGID_1_" gradientUnits="userSpaceOnUse" x1="629.768" y1="1746.9998" x2="629.768" y2="1746.9998" gradientTransform="matrix(1 0 0 -1 0 2438)">
	<stop  offset="0" style="stop-color:#FFFFFF"/>
	<stop  offset="1" style="stop-color:#000000"/>
</linearGradient>
<path class="st0" d="M629.77,691"/>
<linearGradient id="SVGID_2_" gradientUnits="userSpaceOnUse" x1="615.658" y1="1654.7498" x2="615.658" y2="1654.7498" gradientTransform="matrix(1 0 0 -1 0 2438)">
	<stop  offset="0" style="stop-color:#FFFFFF"/>
	<stop  offset="1" style="stop-color:#000000"/>
</linearGradient>
<path class="st1" d="M615.66,783.25"/>
<linearGradient id="SVGID_3_" gradientUnits="userSpaceOnUse" x1="614.998" y1="1655.4098" x2="614.998" y2="1655.4098" gradientTransform="matrix(1 0 0 -1 0 2438)">
	<stop  offset="0" style="stop-color:#FFFFFF"/>
	<stop  offset="1" style="stop-color:#000000"/>
</linearGradient>
<path class="st2" d="M615,782.59"/>
<linearGradient id="SVGID_4_" gradientUnits="userSpaceOnUse" x1="470.077" y1="1650.4489" x2="587.2781" y2="1650.4489" gradientTransform="matrix(1 0 0 -1 0 2438)">
	<stop  offset="0" style="stop-color:#FFFFFF"/>
	<stop  offset="5.308211e-03" style="stop-color:#FBFFFF"/>
	<stop  offset="0.0851" style="stop-color:#C7FFFF"/>
	<stop  offset="0.17" style="stop-color:#98FFFF"/>
	<stop  offset="0.2584" style="stop-color:#6FFFFF"/>
	<stop  offset="0.3509" style="stop-color:#4DFFFF"/>
	<stop  offset="0.4488" style="stop-color:#31FFFF"/>
	<stop  offset="0.5537" style="stop-color:#1BFFFF"/>
	<stop  offset="0.6692" style="stop-color:#0CFFFF"/>
	<stop  offset="0.8033" style="stop-color:#03FFFF"/>
	<stop  offset="1" style="stop-color:#00FFFF"/>
</linearGradient>
<path class="st3" d="M487.97,841.89c-7.74-8.05-13.49-18.24-16.21-29.92c-8.03-34.54,13.48-69.05,48.05-77.08
	c26.47-6.14,52.92,5.02,67.47,26.08c-15.18-15.77-38.05-23.4-60.93-18.09c-34.57,8.03-56.09,42.54-48.05,77.08
	C480.19,828.06,483.52,835.43,487.97,841.89z"/>
<linearGradient id="SVGID_5_" gradientUnits="userSpaceOnUse" x1="615.608" y1="1654.9998" x2="615.608" y2="1654.9998" gradientTransform="matrix(1 0 0 -1 0 2438)">
	<stop  offset="0" style="stop-color:#FFFFFF"/>
	<stop  offset="1" style="stop-color:#000000"/>
</linearGradient>
<path class="st4" d="M615.61,783"/>
<linearGradient id="SVGID_6_" gradientUnits="userSpaceOnUse" x1="503.488" y1="1657.2498" x2="528.688" y2="1657.2498" gradientTransform="matrix(1 0 0 -1 0 2438)">
	<stop  offset="0" style="stop-color:#FFFFFF"/>
	<stop  offset="1" style="stop-color:#00FF00"/>
</linearGradient>
<ellipse class="st5" cx="516.09" cy="780.75" rx="12.6" ry="12.59"/>
<linearGradient id="SVGID_7_" gradientUnits="userSpaceOnUse" x1="592.778" y1="1657.2498" x2="617.978" y2="1657.2498" gradientTransform="matrix(1 0 0 -1 0 2438)">
	<stop  offset="0" style="stop-color:#FFFFFF"/>
	<stop  offset="1" style="stop-color:#00FF00"/>
</linearGradient>
<ellipse class="st6" cx="605.38" cy="780.75" rx="12.6" ry="12.59"/>
<linearGradient id="SVGID_8_" gradientUnits="userSpaceOnUse" x1="459.748" y1="1650.53" x2="666.198" y2="1650.53" gradientTransform="matrix(1 0 0 -1 0 2438)">
	<stop  offset="0.2291" style="stop-color:#00FF00"/>
	<stop  offset="0.8017" style="stop-color:#AFFF2E"/>
	<stop  offset="1" style="stop-color:#00FF00"/>
</linearGradient>
<path class="st7" d="M666.2,793.61c0,3.02-0.13,6.01-0.39,8.97v0.01c-1.59,18.5-8.08,35.61-18.15,50.02
	c-9.96,14.24-23.42,25.85-39.13,33.58c-13.74,6.77-29.2,10.56-45.55,10.56c-4.24,0-8.42-0.26-12.52-0.75
	c-51.11-6.17-90.71-49.65-90.71-102.38c0-27.41,10.7-52.31,28.14-70.78c0,0,0-0.01,0.01-0.01c0.45-0.34,0.89-0.69,1.35-1.02
	c0.91-0.68,1.82-1.34,2.74-1.98c0.93-0.64,1.86-1.27,2.81-1.89c0.01,0.01,0.01,0.01,0.01,0c1.18-0.76,2.37-1.5,3.58-2.21
	c0.12-0.08,0.25-0.15,0.38-0.22c-0.59,0.36-1.12,0.84-1.51,1.41c-0.01,0-0.01,0-0.01,0.01c-0.34,0.3-0.68,0.6-1.01,0.9
	c-0.04,0.04-0.08,0.08-0.12,0.11c-0.44,0.4-0.88,0.81-1.31,1.23c-0.51,0.48-1.02,0.98-1.52,1.48c-0.46,0.45-0.9,0.9-1.34,1.36
	c-0.46,0.47-0.91,0.95-1.36,1.42c-0.01,0.01-0.01,0.02-0.02,0.02c-0.37,0.4-0.73,0.79-1.09,1.19c-0.22,0.25-0.44,0.49-0.66,0.74
	c-0.29,0.32-0.58,0.65-0.86,0.98c-14.88,17.29-23.87,39.78-23.87,64.38c0,54.57,44.28,98.8,98.89,98.8c0.51,0,1.02-0.01,1.52-0.01
	c0.18-0.01,0.34-0.01,0.52-0.01c0.05,0,0.11,0,0.17-0.01h0.14c0.35-0.01,0.71-0.02,1.06-0.04c0.07,0,0.13-0.01,0.2-0.01h0.05
	c0.1-0.01,0.2-0.01,0.3-0.01c0.15-0.01,0.29-0.01,0.44-0.02c0.55-0.02,1.1-0.05,1.65-0.08c0.06,0,0.13-0.01,0.2-0.02
	c0.57-0.03,1.14-0.07,1.7-0.12c0.13-0.01,0.27-0.02,0.4-0.04c0.49-0.04,0.98-0.08,1.45-0.13c0.16-0.01,0.33-0.03,0.48-0.05
	c0.6-0.06,1.19-0.13,1.77-0.2c0.5-0.06,1-0.13,1.5-0.2c0.24-0.03,0.47-0.06,0.71-0.1l0.54-0.09c0.08-0.01,0.16-0.02,0.25-0.04
	c0.29-0.04,0.57-0.09,0.85-0.13c0.01,0,0.01-0.01,0.01-0.01h0.01c0.48-0.08,0.97-0.17,1.45-0.26s0.96-0.19,1.44-0.29
	c0.3-0.06,0.58-0.12,0.88-0.18c0.04-0.01,0.09-0.02,0.13-0.03c0.36-0.08,0.72-0.16,1.09-0.25c0.37-0.09,0.73-0.18,1.09-0.26
	c0.03-0.01,0.05-0.01,0.08-0.02c0.34-0.08,0.67-0.16,1-0.25c0.47-0.12,0.93-0.25,1.4-0.37c0.92-0.26,1.84-0.53,2.75-0.82
	c0.29-0.09,0.57-0.18,0.86-0.28c0.02,0,0.03-0.01,0.05-0.01c0.01-0.01,0.02-0.01,0.04-0.01c0.02-0.01,0.03-0.01,0.05-0.02
	c0.39-0.12,0.77-0.25,1.15-0.39h0.01c0.34-0.12,0.67-0.23,1.01-0.36c0.13-0.05,0.26-0.09,0.39-0.14c0.46-0.16,0.91-0.33,1.35-0.51
	c0.05-0.02,0.1-0.04,0.15-0.06c0.29-0.11,0.58-0.23,0.88-0.35c0.33-0.13,0.66-0.26,0.99-0.4c0.35-0.15,0.7-0.29,1.05-0.44
	c0.42-0.18,0.84-0.37,1.26-0.56c0.2-0.09,0.4-0.19,0.61-0.28c0.36-0.16,0.72-0.33,1.08-0.51c0.37-0.18,0.74-0.36,1.1-0.54
	c0.01-0.01,0.01-0.01,0.02-0.01c0.29-0.14,0.57-0.29,0.86-0.44c0.36-0.18,0.72-0.37,1.08-0.56c0.39-0.21,0.77-0.42,1.15-0.64
	c0.33-0.18,0.65-0.37,0.98-0.55c0.3-0.17,0.6-0.34,0.89-0.53c0.6-0.35,1.2-0.72,1.79-1.09c0.06-0.04,0.13-0.08,0.2-0.12
	c0.27-0.17,0.55-0.34,0.82-0.53c0.32-0.2,0.64-0.41,0.95-0.63c0.28-0.19,0.55-0.37,0.82-0.56c0.05-0.03,0.09-0.06,0.13-0.09
	c0.06-0.04,0.12-0.08,0.19-0.13c0.04-0.02,0.08-0.05,0.12-0.08c0.41-0.29,0.83-0.58,1.24-0.89c0.85-0.62,1.69-1.26,2.52-1.91
	c0.41-0.33,0.82-0.65,1.23-1c0.41-0.33,0.81-0.67,1.22-1.02c0.4-0.34,0.8-0.69,1.19-1.04c0.37-0.32,0.74-0.65,1.1-0.99
	c0.1-0.09,0.2-0.18,0.3-0.28c0.67-0.62,1.32-1.26,1.96-1.89c0.05-0.04,0.09-0.09,0.13-0.13c0.08-0.08,0.16-0.16,0.25-0.24
	c0.28-0.28,0.56-0.57,0.83-0.85c0.37-0.38,0.74-0.76,1.09-1.16c0.29-0.3,0.57-0.61,0.84-0.92c0.02-0.03,0.05-0.06,0.08-0.09
	c0.1-0.1,0.19-0.2,0.28-0.31c0.32-0.35,0.63-0.7,0.92-1.06c0.35-0.4,0.69-0.81,1.03-1.22s0.68-0.82,1.01-1.24
	c0.27-0.33,0.53-0.67,0.79-1c0.12-0.15,0.23-0.29,0.34-0.44c0.28-0.36,0.55-0.73,0.82-1.1c0.32-0.43,0.64-0.86,0.95-1.3
	c0.26-0.36,0.51-0.72,0.77-1.09c0.36-0.51,0.71-1.04,1.06-1.56c0.29-0.43,0.57-0.86,0.85-1.3c0.01-0.02,0.02-0.04,0.04-0.06
	c0.29-0.46,0.58-0.91,0.86-1.37c0.29-0.46,0.56-0.93,0.84-1.4c0.55-0.93,1.08-1.87,1.6-2.83c0-0.01,0.01-0.01,0.01-0.02
	c0.22-0.4,0.43-0.81,0.64-1.21c0.15-0.29,0.3-0.58,0.45-0.87c0.27-0.52,0.53-1.04,0.78-1.56c0.18-0.37,0.36-0.74,0.54-1.11
	c0.19-0.4,0.38-0.8,0.56-1.2c0.02-0.05,0.04-0.09,0.06-0.14c0.2-0.43,0.39-0.86,0.58-1.29c0.25-0.55,0.48-1.11,0.72-1.68
	c0.02-0.04,0.04-0.08,0.05-0.12c0.18-0.42,0.35-0.85,0.52-1.28c0.21-0.51,0.41-1.03,0.61-1.56c0.25-0.64,0.48-1.29,0.72-1.94
	c0.2-0.54,0.39-1.09,0.57-1.63c0.08-0.21,0.15-0.42,0.22-0.63c0.18-0.52,0.35-1.04,0.51-1.58c0.19-0.58,0.37-1.17,0.54-1.76
	c0.09-0.28,0.17-0.56,0.25-0.84c0.06-0.19,0.11-0.39,0.16-0.59c0.09-0.3,0.18-0.6,0.26-0.9c0.04-0.13,0.07-0.26,0.11-0.39
	c0.14-0.5,0.27-1,0.4-1.51c0.01-0.04,0.02-0.07,0.02-0.11c0.17-0.66,0.33-1.32,0.49-1.98c0.15-0.61,0.28-1.21,0.41-1.82
	c0.14-0.64,0.27-1.28,0.4-1.93c0.09-0.41,0.17-0.82,0.25-1.24c0.01-0.06,0.02-0.12,0.03-0.19c0.08-0.4,0.15-0.8,0.22-1.2
	c0.13-0.72,0.25-1.45,0.37-2.18c0.06-0.38,0.12-0.76,0.18-1.15c0.08-0.47,0.14-0.95,0.2-1.42c0.07-0.49,0.13-0.99,0.19-1.48
	c0.09-0.69,0.17-1.4,0.25-2.1l0.02-0.21c0.08-0.67,0.14-1.35,0.2-2.03c0.06-0.72,0.12-1.45,0.18-2.19c0.22,0.06,0.44,0.12,0.66,0.17
	c-0.9,2.87-0.88,4.6-0.37-6.23c0.01-0.01,0-0.02,0-0.02c-3.1-34.17-23.13-63.44-51.65-79.38c24.32,18.55,40.01,47.82,40.01,80.76
	c0,0.36,0,0.72-0.01,1.08c-0.74-0.29-1.48-0.58-2.21-0.89c-2.99-1.24-5.91-2.62-8.74-4.12c-4.58-2.43-8.95-5.21-13.08-8.29
	c-0.09-0.22-0.29-0.37-0.53-0.4c-17.5-13.22-30.58-31.98-36.64-53.68c-0.41-1.47-0.79-2.95-1.13-4.45v-0.01
	c-0.02-0.51-0.05-1.02-0.09-1.54c-0.29-4.18-0.99-8.35-2.11-12.46c-0.01-0.01-0.01-0.01-0.01-0.02c-0.57-2.1-1.26-4.18-2.06-6.24
	v-0.01c-0.67-1.72-1.42-3.43-2.25-5.11c-0.64-1.3-1.33-2.59-2.06-3.86c-0.64-1.11-1.31-2.19-2.01-3.24
	c-3.15-4.79-6.85-9.02-10.97-12.67c4.82-0.75,9.76-1.14,14.79-1.14c2.3,0,4.57,0.08,6.84,0.25h0.01
	c49.16,3.5,87.95,44.46,87.95,94.47c0,2.01-0.06,4-0.19,5.98C665.84,783.68,666.2,788.6,666.2,793.61z"/>
<linearGradient id="SVGID_9_" gradientUnits="userSpaceOnUse" x1="489.988" y1="1742.9497" x2="552.568" y2="1742.9497" gradientTransform="matrix(1 0 0 -1 0 2438)">
	<stop  offset="5.586592e-03" style="stop-color:#FFFFFF"/>
	<stop  offset="0.0326" style="stop-color:#FDFFFD"/>
	<stop  offset="0.0423" style="stop-color:#F6FFF8"/>
	<stop  offset="0.0493" style="stop-color:#EBFFEF"/>
	<stop  offset="0.0549" style="stop-color:#DAFFE1"/>
	<stop  offset="0.0597" style="stop-color:#C4FFCF"/>
	<stop  offset="0.0639" style="stop-color:#A8FFBA"/>
	<stop  offset="0.0677" style="stop-color:#89FFA1"/>
	<stop  offset="0.0698" style="stop-color:#73FF8F"/>
	<stop  offset="0.1905" style="stop-color:#75FF8D"/>
	<stop  offset="0.2384" style="stop-color:#7CFF86"/>
	<stop  offset="0.2734" style="stop-color:#88FF7A"/>
	<stop  offset="0.302" style="stop-color:#98FF69"/>
	<stop  offset="0.3266" style="stop-color:#AEFF52"/>
	<stop  offset="0.338" style="stop-color:#BBFF45"/>
	<stop  offset="0.4714" style="stop-color:#9AFF67"/>
	<stop  offset="0.6397" style="stop-color:#73FF8F"/>
	<stop  offset="0.661" style="stop-color:#75FF8D"/>
	<stop  offset="0.6709" style="stop-color:#7CFF85"/>
	<stop  offset="0.6784" style="stop-color:#89FF79"/>
	<stop  offset="0.6846" style="stop-color:#9AFF67"/>
	<stop  offset="0.6899" style="stop-color:#B0FF50"/>
	<stop  offset="0.7638" style="stop-color:#98FF45"/>
	<stop  offset="0.824" style="stop-color:#89FF3E"/>
	<stop  offset="0.845" style="stop-color:#73FF34"/>
	<stop  offset="0.8957" style="stop-color:#41FF1E"/>
	<stop  offset="0.9403" style="stop-color:#1EFF0D"/>
	<stop  offset="0.9766" style="stop-color:#08FF04"/>
	<stop  offset="1" style="stop-color:#00FF00"/>
</linearGradient>
<polygon class="st8" points="552.57,686.93 552.57,703.17 529.41,703.17 529.41,726.31 513.15,726.31 513.15,703.17 489.99,703.17 
	489.99,686.93 513.15,686.93 513.15,663.79 529.41,663.79 529.41,686.93 "/>
</svg>
