<?xml version="1.0" encoding="utf-8"?>
<!-- Generator: Adobe Illustrator 24.1.2, SVG Export Plug-In . SVG Version: 6.00 Build 0)  -->
<svg version="1.1" id="Layer_1" xmlns="http://www.w3.org/2000/svg" xmlns:xlink="http://www.w3.org/1999/xlink" x="0px" y="0px"
	 viewBox="0 0 512 512" style="enable-background:new 0 0 512 512;" xml:space="preserve">
<style type="text/css">
	.st0{fill:#26F80E;}
</style>
<path class="st0" d="M160,277.3c-53,0-96-43-96-96s43-96,96-96s96,43,96,96C255.9,234.3,213,277.3,160,277.3z M160,128
	c-29.5,0-53.3,23.9-53.3,53.3s23.9,53.3,53.3,53.3s53.3-23.9,53.3-53.3S189.5,128,160,128z M320,426.7
	c-0.1-58.9-47.8-106.6-106.7-106.7H106.7C47.8,320.1,0.1,367.8,0,426.7V512h42.7v-85.3c0-35.3,28.7-64,64-64h106.7
	c35.3,0,64,28.7,64,64V512H320V426.7z M373.3,192c-53,0-96-43-96-96s43-96,96-96s96,43,96,96C469.3,149,426.3,191.9,373.3,192z
	 M373.3,42.7C343.9,42.7,320,66.5,320,96s23.9,53.3,53.3,53.3s53.3-23.9,53.3-53.3S402.8,42.7,373.3,42.7z M512,341.3
	c-0.1-58.9-47.8-106.6-106.7-106.7H320v42.7h85.3c35.3,0,64,28.7,64,64v85.3H512V341.3z"/>
</svg>
