<svg id="Layer_1" data-name="Layer 1" xmlns="http://www.w3.org/2000/svg" xmlns:xlink="http://www.w3.org/1999/xlink" viewBox="0 0 1019.75 1146.48"><defs><style>.cls-1,.cls-2,.cls-3{stroke:#296cb4;}.cls-1,.cls-2,.cls-3,.cls-5{stroke-miterlimit:10;}.cls-1{fill:url(#linear-gradient);}.cls-2{fill:url(#linear-gradient-2);}.cls-3{fill:url(#linear-gradient-3);}.cls-4{fill:url(#linear-gradient-4);}.cls-5{stroke:#000;fill:url(#linear-gradient-5);}.cls-6{fill:url(#linear-gradient-6);}.cls-7{fill:url(#linear-gradient-7);}.cls-8{fill:url(#linear-gradient-8);}.cls-9{fill:url(#linear-gradient-9);}</style><linearGradient id="linear-gradient" x1="895.55" y1="2186.62" x2="895.55" y2="2186.62" gradientTransform="matrix(1, 0, 0, -1, 0, 2438)" gradientUnits="userSpaceOnUse"><stop offset="0" stop-color="#fff"/><stop offset="1"/></linearGradient><linearGradient id="linear-gradient-2" x1="826.47" y1="1736.19" x2="826.47" y2="1736.19" xlink:href="#linear-gradient"/><linearGradient id="linear-gradient-3" x1="823.24" y1="1739.41" x2="823.24" y2="1739.41" xlink:href="#linear-gradient"/><linearGradient id="linear-gradient-4" x1="113.81" y1="1715.19" x2="687.55" y2="1715.19" gradientTransform="matrix(1, 0, 0, -1, 0, 2438)" gradientUnits="userSpaceOnUse"><stop offset="0" stop-color="#fff"/><stop offset="0.01" stop-color="#fbffff"/><stop offset="0.09" stop-color="#c7ffff"/><stop offset="0.17" stop-color="#98ffff"/><stop offset="0.26" stop-color="#6fffff"/><stop offset="0.35" stop-color="#4dffff"/><stop offset="0.45" stop-color="#31ffff"/><stop offset="0.55" stop-color="#1bffff"/><stop offset="0.67" stop-color="#0cffff"/><stop offset="0.8" stop-color="#03ffff"/><stop offset="1" stop-color="aqua"/></linearGradient><linearGradient id="linear-gradient-5" x1="826.23" y1="1737.41" x2="826.23" y2="1737.41" xlink:href="#linear-gradient"/><linearGradient id="linear-gradient-6" x1="277.37" y1="1748.4" x2="400.73" y2="1748.4" gradientTransform="matrix(1, 0, 0, -1, -63.25, 2319.48)" gradientUnits="userSpaceOnUse"><stop offset="0" stop-color="#fff"/><stop offset="1" stop-color="lime"/></linearGradient><linearGradient id="linear-gradient-7" x1="714.47" y1="1748.4" x2="837.83" y2="1748.4" xlink:href="#linear-gradient-6"/><linearGradient id="linear-gradient-8" x1="63.25" y1="1711.09" x2="1083" y2="1711.09" gradientTransform="matrix(1, 0, 0, -1, 0, 2438)" gradientUnits="userSpaceOnUse"><stop offset="0.23" stop-color="lime"/><stop offset="0.8" stop-color="#afff2e"/><stop offset="1" stop-color="lime"/></linearGradient><linearGradient id="linear-gradient-9" x1="211.28" y1="2166.85" x2="517.63" y2="2166.85" gradientTransform="matrix(1, 0, 0, -1, -63.25, 2319.48)" gradientUnits="userSpaceOnUse"><stop offset="0.01" stop-color="#fff"/><stop offset="0.03" stop-color="#fdfffd"/><stop offset="0.04" stop-color="#f6fff8"/><stop offset="0.05" stop-color="#ebffef"/><stop offset="0.05" stop-color="#daffe1"/><stop offset="0.06" stop-color="#c4ffcf"/><stop offset="0.06" stop-color="#a8ffba"/><stop offset="0.07" stop-color="#89ffa1"/><stop offset="0.07" stop-color="#73ff8f"/><stop offset="0.19" stop-color="#75ff8d"/><stop offset="0.24" stop-color="#7cff86"/><stop offset="0.27" stop-color="#88ff7a"/><stop offset="0.3" stop-color="#98ff69"/><stop offset="0.33" stop-color="#aeff52"/><stop offset="0.34" stop-color="#bbff45"/><stop offset="0.47" stop-color="#9aff67"/><stop offset="0.64" stop-color="#73ff8f"/><stop offset="0.66" stop-color="#75ff8d"/><stop offset="0.67" stop-color="#7cff85"/><stop offset="0.68" stop-color="#89ff79"/><stop offset="0.68" stop-color="#9aff67"/><stop offset="0.69" stop-color="#b0ff50"/><stop offset="0.76" stop-color="#98ff45"/><stop offset="0.82" stop-color="#89ff3e"/><stop offset="0.84" stop-color="#73ff34"/><stop offset="0.9" stop-color="#41ff1e"/><stop offset="0.94" stop-color="#1eff0d"/><stop offset="0.98" stop-color="#08ff04"/><stop offset="1" stop-color="lime"/></linearGradient></defs><path class="cls-1" d="M895.55,251.38" transform="translate(-63.25 -118.52)"/><path class="cls-2" d="M826.47,701.81" transform="translate(-63.25 -118.52)"/><path class="cls-3" d="M823.24,698.59" transform="translate(-63.25 -118.52)"/><path class="cls-4" d="M201.39,988.13A312,312,0,0,1,122,842C82.73,673.39,188,504.89,357.26,465.68A315.36,315.36,0,0,1,687.55,593a315.34,315.34,0,0,0-298.28-88.33C220,543.9,114.7,712.41,154.05,881.06A313.68,313.68,0,0,0,201.39,988.13Z" transform="translate(-63.25 -118.52)"/><path class="cls-5" d="M826.23,700.59" transform="translate(-63.25 -118.52)"/><ellipse class="cls-6" cx="275.8" cy="571.08" rx="61.68" ry="61.47"/><ellipse class="cls-7" cx="712.91" cy="571.08" rx="61.68" ry="61.47"/><path class="cls-8" d="M1083,757.15q0,22.3-1.93,44.17v0a503.67,503.67,0,0,1-89.65,246.3A509.88,509.88,0,0,1,573.15,1265a523.14,523.14,0,0,1-61.84-3.69C258.85,1230.93,63.25,1016.84,63.25,757.2c0-135,52.85-257.57,139-348.52a0,0,0,0,1,0-.05c2.22-1.67,4.4-3.39,6.67-5q6.73-5,13.53-9.75c4.6-3.15,9.19-6.25,13.88-9.3,0,.05,0,.05,0,0,5.83-3.75,11.71-7.39,17.69-10.89.59-.39,1.23-.73,1.87-1.08a24.46,24.46,0,0,0-7.45,6.94c-.05,0-.05,0-.05.05-1.68,1.48-3.36,3-5,4.44a7.31,7.31,0,0,1-.6.54c-2.17,2-4.34,4-6.47,6.05-2.52,2.37-5,4.83-7.5,7.29-2.28,2.22-4.45,4.43-6.62,6.7s-4.5,4.67-6.72,7c-.05.05-.05.1-.1.1-1.83,2-3.61,3.89-5.38,5.86-1.09,1.23-2.18,2.41-3.26,3.64-1.44,1.58-2.87,3.2-4.25,4.83A483.34,483.34,0,0,0,84.68,743c0,268.69,218.72,486.48,488.47,486.48,2.52,0,5,0,7.51,0,.88,0,1.68,0,2.56,0a5,5,0,0,0,.84-.05h.7c1.72,0,3.5-.1,5.23-.2.35,0,.64-.05,1-.05h.25a14.54,14.54,0,0,1,1.48,0c.74,0,1.43,0,2.17-.09,2.72-.1,5.43-.25,8.15-.4a7.38,7.38,0,0,0,1-.1c2.81-.14,5.63-.34,8.4-.59.64,0,1.33-.1,2-.19,2.42-.2,4.84-.4,7.16-.64.79,0,1.63-.15,2.38-.25,3-.3,5.87-.64,8.74-1,2.47-.3,4.94-.65,7.41-1,1.18-.15,2.32-.3,3.5-.49l2.67-.45a10.14,10.14,0,0,0,1.24-.19c1.43-.2,2.81-.45,4.2-.64,0,0,0,0,0,0h0c2.38-.4,4.8-.84,7.17-1.28s4.74-.94,7.11-1.43l4.35-.89.64-.14c1.78-.4,3.55-.79,5.38-1.23s3.61-.89,5.39-1.29c.15,0,.24,0,.39-.09,1.68-.4,3.31-.79,4.94-1.23,2.32-.6,4.6-1.24,6.92-1.83,4.54-1.28,9.09-2.61,13.58-4,1.43-.45,2.82-.89,4.25-1.38.1,0,.15,0,.25,0s.09-.05.19-.05l.25-.1c1.93-.59,3.8-1.23,5.68-1.92h.05c1.68-.59,3.31-1.13,5-1.77.64-.25,1.28-.45,1.92-.69q3.42-1.18,6.67-2.51l.74-.3c1.44-.54,2.87-1.13,4.35-1.72s3.26-1.28,4.89-2,3.46-1.43,5.19-2.17c2.07-.88,4.15-1.82,6.22-2.76,1-.44,2-.93,3-1.37q2.67-1.18,5.34-2.52c1.83-.88,3.65-1.77,5.43-2.65,0-.05,0-.05.1-.05,1.43-.69,2.82-1.43,4.25-2.17,1.78-.89,3.56-1.82,5.33-2.76,1.93-1,3.81-2.07,5.68-3.15,1.63-.89,3.21-1.82,4.84-2.71s3-1.67,4.4-2.61c3-1.72,5.93-3.54,8.84-5.36.3-.2.64-.4,1-.6,1.33-.83,2.72-1.67,4-2.61,1.58-1,3.16-2,4.69-3.1,1.39-.93,2.72-1.82,4-2.75a7.31,7.31,0,0,0,.65-.45c.29-.19.59-.39.93-.64a4.08,4.08,0,0,0,.6-.39c2-1.43,4.1-2.86,6.12-4.38,4.2-3.06,8.35-6.21,12.45-9.41,2-1.62,4.05-3.2,6.08-4.92s4-3.3,6-5,4-3.39,5.88-5.12c1.83-1.57,3.65-3.2,5.43-4.87.5-.44,1-.89,1.48-1.38,3.31-3.05,6.52-6.2,9.69-9.31a7.73,7.73,0,0,0,.64-.64c.39-.39.79-.78,1.23-1.18,1.39-1.38,2.77-2.8,4.1-4.18,1.83-1.87,3.66-3.74,5.39-5.71,1.43-1.48,2.81-3,4.15-4.53a2.61,2.61,0,0,1,.39-.45,19.91,19.91,0,0,0,1.38-1.52c1.59-1.73,3.12-3.45,4.55-5.22,1.73-2,3.41-4,5.09-6s3.36-4,5-6.11c1.33-1.62,2.61-3.29,3.9-4.92.59-.74,1.13-1.43,1.68-2.17,1.38-1.77,2.71-3.59,4-5.41,1.58-2.12,3.16-4.24,4.69-6.4,1.28-1.78,2.52-3.55,3.8-5.37,1.78-2.51,3.51-5.12,5.24-7.68,1.43-2.12,2.81-4.24,4.2-6.4a1,1,0,0,1,.2-.3c1.43-2.26,2.86-4.48,4.24-6.74s2.77-4.58,4.15-6.9c2.72-4.58,5.34-9.21,7.91-13.93,0-.05,0-.05,0-.1,1.09-2,2.13-4,3.17-6l2.22-4.28c1.33-2.56,2.62-5.12,3.85-7.68l2.67-5.47c.94-2,1.88-3.94,2.77-5.91.09-.24.19-.44.29-.69,1-2.11,1.93-4.23,2.87-6.35,1.23-2.71,2.37-5.46,3.55-8.27a3.25,3.25,0,0,0,.25-.59c.89-2.07,1.73-4.19,2.57-6.31,1-2.51,2-5.07,3-7.68,1.24-3.15,2.37-6.35,3.56-9.55,1-2.66,1.92-5.37,2.81-8,.4-1,.74-2.07,1.09-3.11.89-2.56,1.73-5.12,2.52-7.78.94-2.85,1.83-5.76,2.67-8.66.44-1.38.84-2.76,1.23-4.14.3-.93.54-1.92.79-2.9.45-1.48.89-3,1.29-4.44.19-.64.34-1.28.54-1.92.69-2.46,1.33-4.92,2-7.43a2.13,2.13,0,0,0,.1-.54c.84-3.25,1.63-6.5,2.42-9.75.74-3,1.39-6,2-9,.69-3.16,1.33-6.31,2-9.51.45-2,.84-4,1.24-6.1,0-.3.1-.59.15-.94.39-2,.74-3.94,1.08-5.91.65-3.54,1.24-7.14,1.83-10.73.3-1.87.59-3.74.89-5.66.4-2.32.69-4.68,1-7s.64-4.87.94-7.28c.44-3.4.84-6.9,1.23-10.34l.1-1c.4-3.3.69-6.64,1-10,.3-3.55.59-7.14.89-10.79,1.08.3,2.17.59,3.26.84-4.45,14.13-4.35,22.65-1.83-30.67a.07.07,0,0,0,0-.1C994.29,590.13,895.35,446,754.48,367.52,874.6,458.86,952.11,603,952.11,765.17c0,1.77,0,3.55-.05,5.32-3.66-1.43-7.31-2.86-10.92-4.38Q919,756.95,898,745.82A500,500,0,0,1,833.36,705a3.22,3.22,0,0,0-2.62-2,500.25,500.25,0,0,1-181-264.31q-3-10.86-5.58-21.91v-.05c-.1-2.52-.25-5-.45-7.59a315.67,315.67,0,0,0-10.42-61.35c0-.05,0-.05,0-.1A305,305,0,0,0,623.09,317V317c-3.31-8.47-7-16.89-11.12-25.16-3.16-6.4-6.57-12.76-10.17-19q-4.74-8.19-9.93-15.95a313.1,313.1,0,0,0-54.19-62.39,476.83,476.83,0,0,1,73.06-5.61c11.36,0,22.57.39,33.78,1.23h.05C887.4,207.29,1079,409,1079,655.22q0,14.85-.94,29.45A545.76,545.76,0,0,1,1083,757.15Z" transform="translate(-63.25 -118.52)"/><polygon class="cls-9" points="454.38 112.99 454.38 192.28 341.01 192.28 341.01 305.27 261.41 305.27 261.41 192.28 148.03 192.28 148.03 112.99 261.41 112.99 261.41 0 341.01 0 341.01 112.99 454.38 112.99"/></svg>